<?xml version="1.0" encoding="UTF-8" standalone="no"?>
<!DOCTYPE svg PUBLIC "-//W3C//DTD SVG 1.1//EN"
 "http://www.w3.org/Graphics/SVG/1.1/DTD/svg11.dtd">
<!-- Generated by graphviz version 2.43.0 (0)
 -->
<!-- Title: workflow Pages: 1 -->
<svg width="1116pt" height="460pt"
 viewBox="0.00 0.00 1116.09 460.00" xmlns="http://www.w3.org/2000/svg" xmlns:xlink="http://www.w3.org/1999/xlink">
<g id="graph0" class="graph" transform="scale(1 1) rotate(0) translate(4 456)">
<title>workflow</title>
<polygon fill="white" stroke="transparent" points="-4,4 -4,-456 1112.09,-456 1112.09,4 -4,4"/>
<!-- place_6f140c02b5c9b12588d158ba2a71b971bf469908 -->
<g id="node1" class="node">
<title>place_6f140c02b5c9b12588d158ba2a71b971bf469908</title>
<ellipse fill="lightblue" stroke="#333333" cx="36" cy="-184" rx="36" ry="36"/>
<text text-anchor="middle" x="36" y="-181.97" font-family="Arial" font-size="9.00">unpublished</text>
</g>
<!-- transition_b6589fc6ab0dc82cf12099d1c2d40ab994e8410c -->
<g id="node6" class="node">
<title>transition_b6589fc6ab0dc82cf12099d1c2d40ab994e8410c</title>
<polygon fill="none" stroke="#333333" points="200.31,-230.04 108.23,-230.04 108.23,-137.96 200.31,-137.96 200.31,-230.04"/>
<text text-anchor="middle" x="154.27" y="-181.97" font-family="Arial" font-size="9.00">request_for_review</text>
</g>
<!-- place_6f140c02b5c9b12588d158ba2a71b971bf469908&#45;&gt;transition_b6589fc6ab0dc82cf12099d1c2d40ab994e8410c -->
<g id="edge1" class="edge">
<title>place_6f140c02b5c9b12588d158ba2a71b971bf469908&#45;&gt;transition_b6589fc6ab0dc82cf12099d1c2d40ab994e8410c</title>
<path fill="none" stroke="#333333" d="M72.2,-184C81.85,-184 92.5,-184 102.83,-184"/>
<polygon fill="#333333" stroke="#333333" points="102.86,-185.75 107.86,-184 102.86,-182.25 102.86,-185.75"/>
</g>
<!-- transition_da4b9237bacccdf19c0760cab7aec4a8359010b0 -->
<g id="node8" class="node">
<title>transition_da4b9237bacccdf19c0760cab7aec4a8359010b0</title>
<polygon fill="none" stroke="#333333" points="308.54,-360 236.54,-360 236.54,-288 308.54,-288 308.54,-360"/>
<text text-anchor="middle" x="272.54" y="-321.97" font-family="Arial" font-size="9.00">publish</text>
</g>
<!-- place_6f140c02b5c9b12588d158ba2a71b971bf469908&#45;&gt;transition_da4b9237bacccdf19c0760cab7aec4a8359010b0 -->
<g id="edge5" class="edge">
<title>place_6f140c02b5c9b12588d158ba2a71b971bf469908&#45;&gt;transition_da4b9237bacccdf19c0760cab7aec4a8359010b0</title>
<path fill="none" stroke="#333333" d="M54.83,-214.76C67.43,-234.01 85.97,-257.94 108,-273 145.44,-298.6 196.3,-311.8 231.32,-318.29"/>
<polygon fill="#333333" stroke="#333333" points="231.13,-320.03 236.36,-319.2 231.75,-316.59 231.13,-320.03"/>
</g>
<!-- place_61e62b213a1a56f7695845df4fc372a10cb0a73e -->
<g id="node2" class="node">
<title>place_61e62b213a1a56f7695845df4fc372a10cb0a73e</title>
<ellipse fill="none" stroke="#333333" cx="272.54" cy="-184" rx="36" ry="36"/>
<text text-anchor="middle" x="272.54" y="-181.97" font-family="Arial" font-size="9.00">review</text>
</g>
<!-- transition_356a192b7913b04c54574d18c28d46e6395428ab -->
<g id="node7" class="node">
<title>transition_356a192b7913b04c54574d18c28d46e6395428ab</title>
<polygon fill="none" stroke="#333333" points="416.54,-297 344.54,-297 344.54,-225 416.54,-225 416.54,-297"/>
<text text-anchor="middle" x="380.54" y="-258.97" font-family="Arial" font-size="9.00">reject</text>
</g>
<!-- place_61e62b213a1a56f7695845df4fc372a10cb0a73e&#45;&gt;transition_356a192b7913b04c54574d18c28d46e6395428ab -->
<g id="edge3" class="edge">
<title>place_61e62b213a1a56f7695845df4fc372a10cb0a73e&#45;&gt;transition_356a192b7913b04c54574d18c28d46e6395428ab</title>
<path fill="none" stroke="#333333" d="M302.22,-204.84C313.9,-213.32 327.59,-223.26 340.18,-232.41"/>
<polygon fill="#333333" stroke="#333333" points="339.33,-233.95 344.4,-235.48 341.38,-231.12 339.33,-233.95"/>
</g>
<!-- transition_77de68daecd823babbb58edb1c8e14d7106e83bb -->
<g id="node9" class="node">
<title>transition_77de68daecd823babbb58edb1c8e14d7106e83bb</title>
<polygon fill="none" stroke="#333333" points="416.54,-207 344.54,-207 344.54,-135 416.54,-135 416.54,-207"/>
<text text-anchor="middle" x="380.54" y="-168.97" font-family="Arial" font-size="9.00">publish</text>
</g>
<!-- place_61e62b213a1a56f7695845df4fc372a10cb0a73e&#45;&gt;transition_77de68daecd823babbb58edb1c8e14d7106e83bb -->
<g id="edge7" class="edge">
<title>place_61e62b213a1a56f7695845df4fc372a10cb0a73e&#45;&gt;transition_77de68daecd823babbb58edb1c8e14d7106e83bb</title>
<path fill="none" stroke="#333333" d="M308.54,-179.71C318.3,-178.51 328.98,-177.2 339.02,-175.97"/>
<polygon fill="#333333" stroke="#333333" points="339.46,-177.68 344.21,-175.33 339.04,-174.2 339.46,-177.68"/>
</g>
<!-- place_c2807535f28e44fe6c7375dcf90518115529a8fa -->
<g id="node3" class="node">
<title>place_c2807535f28e44fe6c7375dcf90518115529a8fa</title>
<ellipse fill="none" stroke="#333333" cx="488.54" cy="-298" rx="36" ry="36"/>
<text text-anchor="middle" x="488.54" y="-295.97" font-family="Arial" font-size="9.00">published</text>
</g>
<!-- transition_c1dfd96eea8cc2b62785275bca38ac261256e278 -->
<g id="node12" class="node">
<title>transition_c1dfd96eea8cc2b62785275bca38ac261256e278</title>
<polygon fill="none" stroke="#333333" points="632.54,-166 560.54,-166 560.54,-94 632.54,-94 632.54,-166"/>
<text text-anchor="middle" x="596.54" y="-127.97" font-family="Arial" font-size="9.00">unpublish</text>
</g>
<!-- place_c2807535f28e44fe6c7375dcf90518115529a8fa&#45;&gt;transition_c1dfd96eea8cc2b62785275bca38ac261256e278 -->
<g id="edge13" class="edge">
<title>place_c2807535f28e44fe6c7375dcf90518115529a8fa&#45;&gt;transition_c1dfd96eea8cc2b62785275bca38ac261256e278</title>
<path fill="none" stroke="#333333" d="M508.38,-267.42C522.6,-244.42 542.66,-212.14 560.54,-184 563.28,-179.69 566.16,-175.19 569.04,-170.71"/>
<polygon fill="#333333" stroke="#333333" points="570.68,-171.4 571.92,-166.25 567.74,-169.51 570.68,-171.4"/>
</g>
<!-- transition_fe5dbbcea5ce7e2988b8c69bcfdfde8904aabc1f -->
<g id="node14" class="node">
<title>transition_fe5dbbcea5ce7e2988b8c69bcfdfde8904aabc1f</title>
<polygon fill="none" stroke="#333333" points="632.54,-265 560.54,-265 560.54,-193 632.54,-193 632.54,-265"/>
<text text-anchor="middle" x="596.54" y="-226.97" font-family="Arial" font-size="9.00">create_draft</text>
</g>
<!-- place_c2807535f28e44fe6c7375dcf90518115529a8fa&#45;&gt;transition_fe5dbbcea5ce7e2988b8c69bcfdfde8904aabc1f -->
<g id="edge17" class="edge">
<title>place_c2807535f28e44fe6c7375dcf90518115529a8fa&#45;&gt;transition_fe5dbbcea5ce7e2988b8c69bcfdfde8904aabc1f</title>
<path fill="none" stroke="#333333" d="M519.07,-278.78C530.52,-271.32 543.82,-262.67 556.07,-254.69"/>
<polygon fill="#333333" stroke="#333333" points="557.3,-255.98 560.54,-251.79 555.39,-253.05 557.3,-255.98"/>
</g>
<!-- place_0e7766b460fd2a39a2fd81d4a3a636b033b52be4 -->
<g id="node4" class="node">
<title>place_0e7766b460fd2a39a2fd81d4a3a636b033b52be4</title>
<ellipse fill="none" stroke="#333333" cx="704.54" cy="-207" rx="36" ry="36"/>
<text text-anchor="middle" x="704.54" y="-204.97" font-family="Arial" font-size="9.00">draft</text>
</g>
<!-- transition_1b6453892473a467d07372d45eb05abc2031647a -->
<g id="node10" class="node">
<title>transition_1b6453892473a467d07372d45eb05abc2031647a</title>
<polygon fill="none" stroke="#333333" points="870.32,-334 798.32,-334 798.32,-262 870.32,-262 870.32,-334"/>
<text text-anchor="middle" x="834.32" y="-295.97" font-family="Arial" font-size="9.00">publish</text>
</g>
<!-- place_0e7766b460fd2a39a2fd81d4a3a636b033b52be4&#45;&gt;transition_1b6453892473a467d07372d45eb05abc2031647a -->
<g id="edge9" class="edge">
<title>place_0e7766b460fd2a39a2fd81d4a3a636b033b52be4&#45;&gt;transition_1b6453892473a467d07372d45eb05abc2031647a</title>
<path fill="none" stroke="#333333" d="M734.22,-227.42C751.73,-239.89 774.37,-256.02 793.59,-269.71"/>
<polygon fill="#333333" stroke="#333333" points="792.81,-271.3 797.89,-272.77 794.84,-268.45 792.81,-271.3"/>
</g>
<!-- transition_902ba3cda1883801594b6e1b452790cc53948fda -->
<g id="node13" class="node">
<title>transition_902ba3cda1883801594b6e1b452790cc53948fda</title>
<polygon fill="none" stroke="#333333" points="870.32,-72 798.32,-72 798.32,0 870.32,0 870.32,-72"/>
<text text-anchor="middle" x="834.32" y="-33.97" font-family="Arial" font-size="9.00">unpublish</text>
</g>
<!-- place_0e7766b460fd2a39a2fd81d4a3a636b033b52be4&#45;&gt;transition_902ba3cda1883801594b6e1b452790cc53948fda -->
<g id="edge15" class="edge">
<title>place_0e7766b460fd2a39a2fd81d4a3a636b033b52be4&#45;&gt;transition_902ba3cda1883801594b6e1b452790cc53948fda</title>
<path fill="none" stroke="#333333" d="M720.93,-174.63C733.86,-149.17 753.83,-113.53 776.54,-86 781.87,-79.54 788.07,-73.19 794.37,-67.31"/>
<polygon fill="#333333" stroke="#333333" points="795.79,-68.38 798.3,-63.71 793.43,-65.8 795.79,-68.38"/>
</g>
<!-- transition_0ade7c2cf97f75d009975f4d720d1fa6c19f4897 -->
<g id="node15" class="node">
<title>transition_0ade7c2cf97f75d009975f4d720d1fa6c19f4897</title>
<polygon fill="none" stroke="#333333" points="870.32,-424 798.32,-424 798.32,-352 870.32,-352 870.32,-424"/>
<text text-anchor="middle" x="834.32" y="-385.97" font-family="Arial" font-size="9.00">remove_draft</text>
</g>
<!-- place_0e7766b460fd2a39a2fd81d4a3a636b033b52be4&#45;&gt;transition_0ade7c2cf97f75d009975f4d720d1fa6c19f4897 -->
<g id="edge19" class="edge">
<title>place_0e7766b460fd2a39a2fd81d4a3a636b033b52be4&#45;&gt;transition_0ade7c2cf97f75d009975f4d720d1fa6c19f4897</title>
<path fill="none" stroke="#333333" d="M718.28,-240.36C730.42,-269.43 750.66,-311.7 776.54,-343 781.72,-349.26 787.9,-355.23 794.24,-360.65"/>
<polygon fill="#333333" stroke="#333333" points="793.25,-362.1 798.21,-363.95 795.49,-359.41 793.25,-362.1"/>
</g>
<!-- transition_b1d5781111d84f7b3fe45a0852e59758cd7a87e5 -->
<g id="node16" class="node">
<title>transition_b1d5781111d84f7b3fe45a0852e59758cd7a87e5</title>
<polygon fill="none" stroke="#333333" points="891.87,-243.55 776.76,-243.55 776.76,-128.45 891.87,-128.45 891.87,-243.55"/>
<text text-anchor="middle" x="834.32" y="-183.97" font-family="Arial" font-size="9.00">request_for_review_draft</text>
</g>
<!-- place_0e7766b460fd2a39a2fd81d4a3a636b033b52be4&#45;&gt;transition_b1d5781111d84f7b3fe45a0852e59758cd7a87e5 -->
<g id="edge21" class="edge">
<title>place_0e7766b460fd2a39a2fd81d4a3a636b033b52be4&#45;&gt;transition_b1d5781111d84f7b3fe45a0852e59758cd7a87e5</title>
<path fill="none" stroke="#333333" d="M740.12,-201.32C749.86,-199.72 760.76,-197.92 771.58,-196.15"/>
<polygon fill="#333333" stroke="#333333" points="771.89,-197.87 776.54,-195.33 771.33,-194.41 771.89,-197.87"/>
</g>
<!-- place_c020eefdc595b46645c4e592566179cef2f2f33c -->
<g id="node5" class="node">
<title>place_c020eefdc595b46645c4e592566179cef2f2f33c</title>
<ellipse fill="none" stroke="#333333" cx="964.09" cy="-186" rx="36" ry="36"/>
<text text-anchor="middle" x="964.09" y="-183.97" font-family="Arial" font-size="9.00">review_draft</text>
</g>
<!-- transition_ac3478d69a3c81fa62e60f5c3696165a4e5e6ac4 -->
<g id="node11" class="node">
<title>transition_ac3478d69a3c81fa62e60f5c3696165a4e5e6ac4</title>
<polygon fill="none" stroke="#333333" points="1108.09,-378 1036.09,-378 1036.09,-306 1108.09,-306 1108.09,-378"/>
<text text-anchor="middle" x="1072.09" y="-339.97" font-family="Arial" font-size="9.00">publish</text>
</g>
<!-- place_c020eefdc595b46645c4e592566179cef2f2f33c&#45;&gt;transition_ac3478d69a3c81fa62e60f5c3696165a4e5e6ac4 -->
<g id="edge11" class="edge">
<title>place_c020eefdc595b46645c4e592566179cef2f2f33c&#45;&gt;transition_ac3478d69a3c81fa62e60f5c3696165a4e5e6ac4</title>
<path fill="none" stroke="#333333" d="M985.03,-215.34C1001.6,-239.72 1025.34,-274.66 1043.69,-301.67"/>
<polygon fill="#333333" stroke="#333333" points="1042.33,-302.78 1046.59,-305.93 1045.22,-300.81 1042.33,-302.78"/>
</g>
<!-- transition_17ba0791499db908433b80f37c5fbc89b870084b -->
<g id="node17" class="node">
<title>transition_17ba0791499db908433b80f37c5fbc89b870084b</title>
<polygon fill="none" stroke="#333333" points="1108.09,-179 1036.09,-179 1036.09,-107 1108.09,-107 1108.09,-179"/>
<text text-anchor="middle" x="1072.09" y="-140.97" font-family="Arial" font-size="9.00">reject_draft</text>
</g>
<!-- place_c020eefdc595b46645c4e592566179cef2f2f33c&#45;&gt;transition_17ba0791499db908433b80f37c5fbc89b870084b -->
<g id="edge23" class="edge">
<title>place_c020eefdc595b46645c4e592566179cef2f2f33c&#45;&gt;transition_17ba0791499db908433b80f37c5fbc89b870084b</title>
<path fill="none" stroke="#333333" d="M997.76,-172.75C1008.3,-168.47 1020.1,-163.68 1031.11,-159.22"/>
<polygon fill="#333333" stroke="#333333" points="1031.79,-160.83 1035.77,-157.33 1030.48,-157.59 1031.79,-160.83"/>
</g>
<!-- transition_b6589fc6ab0dc82cf12099d1c2d40ab994e8410c&#45;&gt;place_61e62b213a1a56f7695845df4fc372a10cb0a73e -->
<g id="edge2" class="edge">
<title>transition_b6589fc6ab0dc82cf12099d1c2d40ab994e8410c&#45;&gt;place_61e62b213a1a56f7695845df4fc372a10cb0a73e</title>
<path fill="none" stroke="#333333" d="M200.56,-184C210.66,-184 221.3,-184 231.18,-184"/>
<polygon fill="#333333" stroke="#333333" points="231.28,-185.75 236.28,-184 231.28,-182.25 231.28,-185.75"/>
</g>
<!-- transition_356a192b7913b04c54574d18c28d46e6395428ab&#45;&gt;place_6f140c02b5c9b12588d158ba2a71b971bf469908 -->
<g id="edge4" class="edge">
<title>transition_356a192b7913b04c54574d18c28d46e6395428ab&#45;&gt;place_6f140c02b5c9b12588d158ba2a71b971bf469908</title>
<path fill="none" stroke="#333333" d="M344.27,-264.38C291.07,-268.12 188.04,-270.04 108,-239 92.72,-233.07 78.02,-222.74 65.99,-212.62"/>
<polygon fill="#333333" stroke="#333333" points="66.95,-211.14 62.02,-209.2 64.67,-213.79 66.95,-211.14"/>
</g>
<!-- transition_da4b9237bacccdf19c0760cab7aec4a8359010b0&#45;&gt;place_c2807535f28e44fe6c7375dcf90518115529a8fa -->
<g id="edge6" class="edge">
<title>transition_da4b9237bacccdf19c0760cab7aec4a8359010b0&#45;&gt;place_c2807535f28e44fe6c7375dcf90518115529a8fa</title>
<path fill="none" stroke="#333333" d="M308.88,-319.71C346.94,-315.08 407.39,-307.74 447.26,-302.89"/>
<polygon fill="#333333" stroke="#333333" points="447.75,-304.6 452.5,-302.26 447.33,-301.12 447.75,-304.6"/>
</g>
<!-- transition_77de68daecd823babbb58edb1c8e14d7106e83bb&#45;&gt;place_c2807535f28e44fe6c7375dcf90518115529a8fa -->
<g id="edge8" class="edge">
<title>transition_77de68daecd823babbb58edb1c8e14d7106e83bb&#45;&gt;place_c2807535f28e44fe6c7375dcf90518115529a8fa</title>
<path fill="none" stroke="#333333" d="M411.63,-207.05C427.34,-225.87 446.37,-248.67 461.44,-266.73"/>
<polygon fill="#333333" stroke="#333333" points="460.24,-268.03 464.79,-270.75 462.93,-265.79 460.24,-268.03"/>
</g>
<!-- transition_1b6453892473a467d07372d45eb05abc2031647a&#45;&gt;place_c2807535f28e44fe6c7375dcf90518115529a8fa -->
<g id="edge10" class="edge">
<title>transition_1b6453892473a467d07372d45eb05abc2031647a&#45;&gt;place_c2807535f28e44fe6c7375dcf90518115529a8fa</title>
<path fill="none" stroke="#333333" d="M798.19,-298C733.93,-298 597.82,-298 529.88,-298"/>
<polygon fill="#333333" stroke="#333333" points="529.71,-296.25 524.71,-298 529.71,-299.75 529.71,-296.25"/>
</g>
<!-- transition_ac3478d69a3c81fa62e60f5c3696165a4e5e6ac4&#45;&gt;place_c2807535f28e44fe6c7375dcf90518115529a8fa -->
<g id="edge12" class="edge">
<title>transition_ac3478d69a3c81fa62e60f5c3696165a4e5e6ac4&#45;&gt;place_c2807535f28e44fe6c7375dcf90518115529a8fa</title>
<path fill="none" stroke="#333333" d="M1035.92,-370.33C991.81,-402.92 912.56,-452 835.32,-452 703.54,-452 703.54,-452 703.54,-452 621.34,-452 549.16,-376.22 513.39,-330.98"/>
<polygon fill="#333333" stroke="#333333" points="514.71,-329.83 510.25,-326.97 511.95,-331.98 514.71,-329.83"/>
</g>
<!-- transition_c1dfd96eea8cc2b62785275bca38ac261256e278&#45;&gt;place_6f140c02b5c9b12588d158ba2a71b971bf469908 -->
<g id="edge14" class="edge">
<title>transition_c1dfd96eea8cc2b62785275bca38ac261256e278&#45;&gt;place_6f140c02b5c9b12588d158ba2a71b971bf469908</title>
<path fill="none" stroke="#333333" d="M560.45,-123.9C518.16,-117.08 444.88,-107 381.54,-107 271.54,-107 271.54,-107 271.54,-107 198.2,-107 175.65,-100.68 108,-129 92.88,-135.33 78.21,-145.73 66.16,-155.8"/>
<polygon fill="#333333" stroke="#333333" points="64.85,-154.62 62.18,-159.19 67.12,-157.28 64.85,-154.62"/>
</g>
<!-- transition_902ba3cda1883801594b6e1b452790cc53948fda&#45;&gt;place_6f140c02b5c9b12588d158ba2a71b971bf469908 -->
<g id="edge16" class="edge">
<title>transition_902ba3cda1883801594b6e1b452790cc53948fda&#45;&gt;place_6f140c02b5c9b12588d158ba2a71b971bf469908</title>
<path fill="none" stroke="#333333" d="M798.19,-38.66C752.14,-41.92 668.84,-47 597.54,-47 271.54,-47 271.54,-47 271.54,-47 194.71,-47 171.82,-60.22 108,-103 89.38,-115.48 72.64,-134.02 60.09,-150.22"/>
<polygon fill="#333333" stroke="#333333" points="58.63,-149.25 56.99,-154.29 61.42,-151.37 58.63,-149.25"/>
</g>
<!-- transition_fe5dbbcea5ce7e2988b8c69bcfdfde8904aabc1f&#45;&gt;place_0e7766b460fd2a39a2fd81d4a3a636b033b52be4 -->
<g id="edge18" class="edge">
<title>transition_fe5dbbcea5ce7e2988b8c69bcfdfde8904aabc1f&#45;&gt;place_0e7766b460fd2a39a2fd81d4a3a636b033b52be4</title>
<path fill="none" stroke="#333333" d="M632.54,-221.74C642.6,-219.65 653.63,-217.36 663.94,-215.22"/>
<polygon fill="#333333" stroke="#333333" points="664.4,-216.91 668.94,-214.18 663.68,-213.48 664.4,-216.91"/>
</g>
<!-- transition_0ade7c2cf97f75d009975f4d720d1fa6c19f4897&#45;&gt;place_c2807535f28e44fe6c7375dcf90518115529a8fa -->
<g id="edge20" class="edge">
<title>transition_0ade7c2cf97f75d009975f4d720d1fa6c19f4897&#45;&gt;place_c2807535f28e44fe6c7375dcf90518115529a8fa</title>
<path fill="none" stroke="#333333" d="M798.13,-378.79C733.43,-361.85 596.04,-325.88 528.57,-308.22"/>
<polygon fill="#333333" stroke="#333333" points="528.72,-306.45 523.44,-306.88 527.84,-309.84 528.72,-306.45"/>
</g>
<!-- transition_b1d5781111d84f7b3fe45a0852e59758cd7a87e5&#45;&gt;place_c020eefdc595b46645c4e592566179cef2f2f33c -->
<g id="edge22" class="edge">
<title>transition_b1d5781111d84f7b3fe45a0852e59758cd7a87e5&#45;&gt;place_c020eefdc595b46645c4e592566179cef2f2f33c</title>
<path fill="none" stroke="#333333" d="M892.11,-186C902.44,-186 913.02,-186 922.75,-186"/>
<polygon fill="#333333" stroke="#333333" points="922.76,-187.75 927.76,-186 922.76,-184.25 922.76,-187.75"/>
</g>
<!-- transition_17ba0791499db908433b80f37c5fbc89b870084b&#45;&gt;place_0e7766b460fd2a39a2fd81d4a3a636b033b52be4 -->
<g id="edge24" class="edge">
<title>transition_17ba0791499db908433b80f37c5fbc89b870084b&#45;&gt;place_0e7766b460fd2a39a2fd81d4a3a636b033b52be4</title>
<path fill="none" stroke="#333333" d="M1035.92,-129.2C978.49,-108.99 862.41,-77.95 776.54,-119 753.98,-129.78 736.3,-151.62 724.22,-170.84"/>
<polygon fill="#333333" stroke="#333333" points="722.7,-169.98 721.57,-175.15 725.68,-171.81 722.7,-169.98"/>
</g>
</g>
</svg>
