<?xml version="1.0" encoding="UTF-8" standalone="no"?>
<!DOCTYPE svg PUBLIC "-//W3C//DTD SVG 1.1//EN"
 "http://www.w3.org/Graphics/SVG/1.1/DTD/svg11.dtd">
<!-- Generated by graphviz version 2.43.0 (0)
 -->
<!-- Title: workflow Pages: 1 -->
<svg width="1116pt" height="560pt"
 viewBox="0.00 0.00 1116.09 560.00" xmlns="http://www.w3.org/2000/svg" xmlns:xlink="http://www.w3.org/1999/xlink">
<g id="graph0" class="graph" transform="scale(1 1) rotate(0) translate(4 556)">
<title>workflow</title>
<polygon fill="white" stroke="transparent" points="-4,4 -4,-556 1112.09,-556 1112.09,4 -4,4"/>
<!-- place_6f140c02b5c9b12588d158ba2a71b971bf469908 -->
<g id="node1" class="node">
<title>place_6f140c02b5c9b12588d158ba2a71b971bf469908</title>
<ellipse fill="lightblue" stroke="#333333" cx="36" cy="-225" rx="36" ry="36"/>
<text text-anchor="middle" x="36" y="-222.97" font-family="Arial" font-size="9.00">unpublished</text>
</g>
<!-- transition_b6589fc6ab0dc82cf12099d1c2d40ab994e8410c -->
<g id="node6" class="node">
<title>transition_b6589fc6ab0dc82cf12099d1c2d40ab994e8410c</title>
<polygon fill="none" stroke="#333333" points="200.31,-271.04 108.23,-271.04 108.23,-178.96 200.31,-178.96 200.31,-271.04"/>
<text text-anchor="middle" x="154.27" y="-222.97" font-family="Arial" font-size="9.00">request_for_review</text>
</g>
<!-- place_6f140c02b5c9b12588d158ba2a71b971bf469908&#45;&gt;transition_b6589fc6ab0dc82cf12099d1c2d40ab994e8410c -->
<g id="edge1" class="edge">
<title>place_6f140c02b5c9b12588d158ba2a71b971bf469908&#45;&gt;transition_b6589fc6ab0dc82cf12099d1c2d40ab994e8410c</title>
<path fill="none" stroke="#333333" d="M72.2,-225C81.85,-225 92.5,-225 102.83,-225"/>
<polygon fill="#333333" stroke="#333333" points="102.86,-226.75 107.86,-225 102.86,-223.25 102.86,-226.75"/>
</g>
<!-- transition_77de68daecd823babbb58edb1c8e14d7106e83bb -->
<g id="node9" class="node">
<title>transition_77de68daecd823babbb58edb1c8e14d7106e83bb</title>
<polygon fill="none" stroke="#333333" points="308.54,-401 236.54,-401 236.54,-329 308.54,-329 308.54,-401"/>
<text text-anchor="middle" x="272.54" y="-362.97" font-family="Arial" font-size="9.00">publish</text>
</g>
<!-- place_6f140c02b5c9b12588d158ba2a71b971bf469908&#45;&gt;transition_77de68daecd823babbb58edb1c8e14d7106e83bb -->
<g id="edge7" class="edge">
<title>place_6f140c02b5c9b12588d158ba2a71b971bf469908&#45;&gt;transition_77de68daecd823babbb58edb1c8e14d7106e83bb</title>
<path fill="none" stroke="#333333" d="M54.83,-255.76C67.43,-275.01 85.97,-298.94 108,-314 145.44,-339.6 196.3,-352.8 231.32,-359.29"/>
<polygon fill="#333333" stroke="#333333" points="231.13,-361.03 236.36,-360.2 231.75,-357.59 231.13,-361.03"/>
</g>
<!-- place_61e62b213a1a56f7695845df4fc372a10cb0a73e -->
<g id="node2" class="node">
<title>place_61e62b213a1a56f7695845df4fc372a10cb0a73e</title>
<ellipse fill="none" stroke="#333333" cx="272.54" cy="-225" rx="36" ry="36"/>
<text text-anchor="middle" x="272.54" y="-222.97" font-family="Arial" font-size="9.00">review</text>
</g>
<!-- transition_356a192b7913b04c54574d18c28d46e6395428ab -->
<g id="node7" class="node">
<title>transition_356a192b7913b04c54574d18c28d46e6395428ab</title>
<polygon fill="none" stroke="#333333" points="416.54,-338 344.54,-338 344.54,-266 416.54,-266 416.54,-338"/>
<text text-anchor="middle" x="380.54" y="-299.97" font-family="Arial" font-size="9.00">reject</text>
</g>
<!-- place_61e62b213a1a56f7695845df4fc372a10cb0a73e&#45;&gt;transition_356a192b7913b04c54574d18c28d46e6395428ab -->
<g id="edge3" class="edge">
<title>place_61e62b213a1a56f7695845df4fc372a10cb0a73e&#45;&gt;transition_356a192b7913b04c54574d18c28d46e6395428ab</title>
<path fill="none" stroke="#333333" d="M302.22,-245.84C313.9,-254.32 327.59,-264.26 340.18,-273.41"/>
<polygon fill="#333333" stroke="#333333" points="339.33,-274.95 344.4,-276.48 341.38,-272.12 339.33,-274.95"/>
</g>
<!-- transition_1b6453892473a467d07372d45eb05abc2031647a -->
<g id="node10" class="node">
<title>transition_1b6453892473a467d07372d45eb05abc2031647a</title>
<polygon fill="none" stroke="#333333" points="416.54,-248 344.54,-248 344.54,-176 416.54,-176 416.54,-248"/>
<text text-anchor="middle" x="380.54" y="-209.97" font-family="Arial" font-size="9.00">publish</text>
</g>
<!-- place_61e62b213a1a56f7695845df4fc372a10cb0a73e&#45;&gt;transition_1b6453892473a467d07372d45eb05abc2031647a -->
<g id="edge9" class="edge">
<title>place_61e62b213a1a56f7695845df4fc372a10cb0a73e&#45;&gt;transition_1b6453892473a467d07372d45eb05abc2031647a</title>
<path fill="none" stroke="#333333" d="M308.54,-220.71C318.3,-219.51 328.98,-218.2 339.02,-216.97"/>
<polygon fill="#333333" stroke="#333333" points="339.46,-218.68 344.21,-216.33 339.04,-215.2 339.46,-218.68"/>
</g>
<!-- place_c2807535f28e44fe6c7375dcf90518115529a8fa -->
<g id="node3" class="node">
<title>place_c2807535f28e44fe6c7375dcf90518115529a8fa</title>
<ellipse fill="none" stroke="#333333" cx="488.54" cy="-366" rx="36" ry="36"/>
<text text-anchor="middle" x="488.54" y="-363.97" font-family="Arial" font-size="9.00">published</text>
</g>
<!-- transition_da4b9237bacccdf19c0760cab7aec4a8359010b0 -->
<g id="node8" class="node">
<title>transition_da4b9237bacccdf19c0760cab7aec4a8359010b0</title>
<polygon fill="none" stroke="#333333" points="632.54,-552 560.54,-552 560.54,-480 632.54,-480 632.54,-552"/>
<text text-anchor="middle" x="596.54" y="-513.97" font-family="Arial" font-size="9.00">publish</text>
</g>
<!-- place_c2807535f28e44fe6c7375dcf90518115529a8fa&#45;&gt;transition_da4b9237bacccdf19c0760cab7aec4a8359010b0 -->
<g id="edge5" class="edge">
<title>place_c2807535f28e44fe6c7375dcf90518115529a8fa&#45;&gt;transition_da4b9237bacccdf19c0760cab7aec4a8359010b0</title>
<path fill="none" stroke="#333333" d="M512.54,-392.87C529.75,-415.84 553.25,-449.06 570.86,-475.26"/>
<polygon fill="#333333" stroke="#333333" points="569.62,-476.56 573.85,-479.74 572.52,-474.61 569.62,-476.56"/>
</g>
<!-- transition_902ba3cda1883801594b6e1b452790cc53948fda -->
<g id="node13" class="node">
<title>transition_902ba3cda1883801594b6e1b452790cc53948fda</title>
<polygon fill="none" stroke="#333333" points="632.54,-184 560.54,-184 560.54,-112 632.54,-112 632.54,-184"/>
<text text-anchor="middle" x="596.54" y="-145.97" font-family="Arial" font-size="9.00">unpublish</text>
</g>
<!-- place_c2807535f28e44fe6c7375dcf90518115529a8fa&#45;&gt;transition_902ba3cda1883801594b6e1b452790cc53948fda -->
<g id="edge15" class="edge">
<title>place_c2807535f28e44fe6c7375dcf90518115529a8fa&#45;&gt;transition_902ba3cda1883801594b6e1b452790cc53948fda</title>
<path fill="none" stroke="#333333" d="M501.42,-332.19C514.14,-297.56 535.86,-242.61 560.54,-198 562.3,-194.81 564.22,-191.58 566.23,-188.37"/>
<polygon fill="#333333" stroke="#333333" points="567.79,-189.17 569.01,-184.02 564.84,-187.29 567.79,-189.17"/>
</g>
<!-- transition_0ade7c2cf97f75d009975f4d720d1fa6c19f4897 -->
<g id="node15" class="node">
<title>transition_0ade7c2cf97f75d009975f4d720d1fa6c19f4897</title>
<polygon fill="none" stroke="#333333" points="632.54,-331 560.54,-331 560.54,-259 632.54,-259 632.54,-331"/>
<text text-anchor="middle" x="596.54" y="-292.97" font-family="Arial" font-size="9.00">create_draft</text>
</g>
<!-- place_c2807535f28e44fe6c7375dcf90518115529a8fa&#45;&gt;transition_0ade7c2cf97f75d009975f4d720d1fa6c19f4897 -->
<g id="edge19" class="edge">
<title>place_c2807535f28e44fe6c7375dcf90518115529a8fa&#45;&gt;transition_0ade7c2cf97f75d009975f4d720d1fa6c19f4897</title>
<path fill="none" stroke="#333333" d="M518.79,-346.41C530.35,-338.67 543.81,-329.65 556.2,-321.35"/>
<polygon fill="#333333" stroke="#333333" points="557.18,-322.8 560.36,-318.56 555.23,-319.89 557.18,-322.8"/>
</g>
<!-- place_0e7766b460fd2a39a2fd81d4a3a636b033b52be4 -->
<g id="node4" class="node">
<title>place_0e7766b460fd2a39a2fd81d4a3a636b033b52be4</title>
<ellipse fill="none" stroke="#333333" cx="704.54" cy="-276" rx="36" ry="36"/>
<text text-anchor="middle" x="704.54" y="-273.97" font-family="Arial" font-size="9.00">draft</text>
</g>
<!-- transition_ac3478d69a3c81fa62e60f5c3696165a4e5e6ac4 -->
<g id="node11" class="node">
<title>transition_ac3478d69a3c81fa62e60f5c3696165a4e5e6ac4</title>
<polygon fill="none" stroke="#333333" points="870.32,-424 798.32,-424 798.32,-352 870.32,-352 870.32,-424"/>
<text text-anchor="middle" x="834.32" y="-385.97" font-family="Arial" font-size="9.00">publish</text>
</g>
<!-- place_0e7766b460fd2a39a2fd81d4a3a636b033b52be4&#45;&gt;transition_ac3478d69a3c81fa62e60f5c3696165a4e5e6ac4 -->
<g id="edge11" class="edge">
<title>place_0e7766b460fd2a39a2fd81d4a3a636b033b52be4&#45;&gt;transition_ac3478d69a3c81fa62e60f5c3696165a4e5e6ac4</title>
<path fill="none" stroke="#333333" d="M731.01,-301.05C744.32,-313.88 761.03,-329.58 776.54,-343 782.1,-347.81 788.09,-352.78 794.01,-357.57"/>
<polygon fill="#333333" stroke="#333333" points="793.11,-359.09 798.1,-360.86 795.3,-356.36 793.11,-359.09"/>
</g>
<!-- transition_fe5dbbcea5ce7e2988b8c69bcfdfde8904aabc1f -->
<g id="node14" class="node">
<title>transition_fe5dbbcea5ce7e2988b8c69bcfdfde8904aabc1f</title>
<polygon fill="none" stroke="#333333" points="870.32,-72 798.32,-72 798.32,0 870.32,0 870.32,-72"/>
<text text-anchor="middle" x="834.32" y="-33.97" font-family="Arial" font-size="9.00">unpublish</text>
</g>
<!-- place_0e7766b460fd2a39a2fd81d4a3a636b033b52be4&#45;&gt;transition_fe5dbbcea5ce7e2988b8c69bcfdfde8904aabc1f -->
<g id="edge17" class="edge">
<title>place_0e7766b460fd2a39a2fd81d4a3a636b033b52be4&#45;&gt;transition_fe5dbbcea5ce7e2988b8c69bcfdfde8904aabc1f</title>
<path fill="none" stroke="#333333" d="M712.31,-240.49C721.5,-199.14 741.02,-130.24 776.54,-81 781.41,-74.24 787.57,-67.97 794.01,-62.38"/>
<polygon fill="#333333" stroke="#333333" points="795.35,-63.54 798.05,-58.99 793.1,-60.86 795.35,-63.54"/>
</g>
<!-- transition_b1d5781111d84f7b3fe45a0852e59758cd7a87e5 -->
<g id="node16" class="node">
<title>transition_b1d5781111d84f7b3fe45a0852e59758cd7a87e5</title>
<polygon fill="none" stroke="#333333" points="870.32,-162 798.32,-162 798.32,-90 870.32,-90 870.32,-162"/>
<text text-anchor="middle" x="834.32" y="-123.97" font-family="Arial" font-size="9.00">remove_draft</text>
</g>
<!-- place_0e7766b460fd2a39a2fd81d4a3a636b033b52be4&#45;&gt;transition_b1d5781111d84f7b3fe45a0852e59758cd7a87e5 -->
<g id="edge21" class="edge">
<title>place_0e7766b460fd2a39a2fd81d4a3a636b033b52be4&#45;&gt;transition_b1d5781111d84f7b3fe45a0852e59758cd7a87e5</title>
<path fill="none" stroke="#333333" d="M726.06,-246.75C745.99,-218.4 773.65,-179.2 776.54,-176 782,-169.94 788.15,-163.87 794.34,-158.17"/>
<polygon fill="#333333" stroke="#333333" points="795.67,-159.32 798.19,-154.66 793.31,-156.73 795.67,-159.32"/>
</g>
<!-- transition_17ba0791499db908433b80f37c5fbc89b870084b -->
<g id="node17" class="node">
<title>transition_17ba0791499db908433b80f37c5fbc89b870084b</title>
<polygon fill="none" stroke="#333333" points="891.87,-333.55 776.76,-333.55 776.76,-218.45 891.87,-218.45 891.87,-333.55"/>
<text text-anchor="middle" x="834.32" y="-273.97" font-family="Arial" font-size="9.00">request_for_review_draft</text>
</g>
<!-- place_0e7766b460fd2a39a2fd81d4a3a636b033b52be4&#45;&gt;transition_17ba0791499db908433b80f37c5fbc89b870084b -->
<g id="edge23" class="edge">
<title>place_0e7766b460fd2a39a2fd81d4a3a636b033b52be4&#45;&gt;transition_17ba0791499db908433b80f37c5fbc89b870084b</title>
<path fill="none" stroke="#333333" d="M740.79,-276C750.32,-276 760.91,-276 771.43,-276"/>
<polygon fill="#333333" stroke="#333333" points="771.58,-277.75 776.58,-276 771.58,-274.25 771.58,-277.75"/>
</g>
<!-- place_c020eefdc595b46645c4e592566179cef2f2f33c -->
<g id="node5" class="node">
<title>place_c020eefdc595b46645c4e592566179cef2f2f33c</title>
<ellipse fill="none" stroke="#333333" cx="964.09" cy="-276" rx="36" ry="36"/>
<text text-anchor="middle" x="964.09" y="-273.97" font-family="Arial" font-size="9.00">review_draft</text>
</g>
<!-- transition_c1dfd96eea8cc2b62785275bca38ac261256e278 -->
<g id="node12" class="node">
<title>transition_c1dfd96eea8cc2b62785275bca38ac261256e278</title>
<polygon fill="none" stroke="#333333" points="1108.09,-423 1036.09,-423 1036.09,-351 1108.09,-351 1108.09,-423"/>
<text text-anchor="middle" x="1072.09" y="-384.97" font-family="Arial" font-size="9.00">publish</text>
</g>
<!-- place_c020eefdc595b46645c4e592566179cef2f2f33c&#45;&gt;transition_c1dfd96eea8cc2b62785275bca38ac261256e278 -->
<g id="edge13" class="edge">
<title>place_c020eefdc595b46645c4e592566179cef2f2f33c&#45;&gt;transition_c1dfd96eea8cc2b62785275bca38ac261256e278</title>
<path fill="none" stroke="#333333" d="M989.68,-301.74C1002.53,-315.21 1018.55,-331.98 1032.98,-347.08"/>
<polygon fill="#333333" stroke="#333333" points="1031.89,-348.48 1036.6,-350.88 1034.42,-346.06 1031.89,-348.48"/>
</g>
<!-- transition_7b52009b64fd0a2a49e6d8a939753077792b0554 -->
<g id="node18" class="node">
<title>transition_7b52009b64fd0a2a49e6d8a939753077792b0554</title>
<polygon fill="none" stroke="#333333" points="1108.09,-269 1036.09,-269 1036.09,-197 1108.09,-197 1108.09,-269"/>
<text text-anchor="middle" x="1072.09" y="-230.97" font-family="Arial" font-size="9.00">reject_draft</text>
</g>
<!-- place_c020eefdc595b46645c4e592566179cef2f2f33c&#45;&gt;transition_7b52009b64fd0a2a49e6d8a939753077792b0554 -->
<g id="edge25" class="edge">
<title>place_c020eefdc595b46645c4e592566179cef2f2f33c&#45;&gt;transition_7b52009b64fd0a2a49e6d8a939753077792b0554</title>
<path fill="none" stroke="#333333" d="M997.76,-262.75C1008.3,-258.47 1020.1,-253.68 1031.11,-249.22"/>
<polygon fill="#333333" stroke="#333333" points="1031.79,-250.83 1035.77,-247.33 1030.48,-247.59 1031.79,-250.83"/>
</g>
<!-- transition_b6589fc6ab0dc82cf12099d1c2d40ab994e8410c&#45;&gt;place_61e62b213a1a56f7695845df4fc372a10cb0a73e -->
<g id="edge2" class="edge">
<title>transition_b6589fc6ab0dc82cf12099d1c2d40ab994e8410c&#45;&gt;place_61e62b213a1a56f7695845df4fc372a10cb0a73e</title>
<path fill="none" stroke="#333333" d="M200.56,-225C210.66,-225 221.3,-225 231.18,-225"/>
<polygon fill="#333333" stroke="#333333" points="231.28,-226.75 236.28,-225 231.28,-223.25 231.28,-226.75"/>
</g>
<!-- transition_356a192b7913b04c54574d18c28d46e6395428ab&#45;&gt;place_6f140c02b5c9b12588d158ba2a71b971bf469908 -->
<g id="edge4" class="edge">
<title>transition_356a192b7913b04c54574d18c28d46e6395428ab&#45;&gt;place_6f140c02b5c9b12588d158ba2a71b971bf469908</title>
<path fill="none" stroke="#333333" d="M344.27,-305.38C291.07,-309.12 188.04,-311.04 108,-280 92.72,-274.07 78.02,-263.74 65.99,-253.62"/>
<polygon fill="#333333" stroke="#333333" points="66.95,-252.14 62.02,-250.2 64.67,-254.79 66.95,-252.14"/>
</g>
<!-- transition_da4b9237bacccdf19c0760cab7aec4a8359010b0&#45;&gt;place_c2807535f28e44fe6c7375dcf90518115529a8fa -->
<g id="edge6" class="edge">
<title>transition_da4b9237bacccdf19c0760cab7aec4a8359010b0&#45;&gt;place_c2807535f28e44fe6c7375dcf90518115529a8fa</title>
<path fill="none" stroke="#333333" d="M565.62,-479.8C548,-455.85 526.15,-424.71 510.39,-401"/>
<polygon fill="#333333" stroke="#333333" points="511.74,-399.87 507.52,-396.66 508.82,-401.8 511.74,-399.87"/>
</g>
<!-- transition_77de68daecd823babbb58edb1c8e14d7106e83bb&#45;&gt;place_c2807535f28e44fe6c7375dcf90518115529a8fa -->
<g id="edge8" class="edge">
<title>transition_77de68daecd823babbb58edb1c8e14d7106e83bb&#45;&gt;place_c2807535f28e44fe6c7375dcf90518115529a8fa</title>
<path fill="none" stroke="#333333" d="M308.88,-365.17C346.94,-365.34 407.39,-365.63 447.26,-365.81"/>
<polygon fill="#333333" stroke="#333333" points="447.5,-367.56 452.5,-365.84 447.51,-364.06 447.5,-367.56"/>
</g>
<!-- transition_1b6453892473a467d07372d45eb05abc2031647a&#45;&gt;place_c2807535f28e44fe6c7375dcf90518115529a8fa -->
<g id="edge10" class="edge">
<title>transition_1b6453892473a467d07372d45eb05abc2031647a&#45;&gt;place_c2807535f28e44fe6c7375dcf90518115529a8fa</title>
<path fill="none" stroke="#333333" d="M410.08,-248.15C412.29,-251.12 414.47,-254.1 416.54,-257 433.87,-281.31 452.23,-309.58 465.94,-331.23"/>
<polygon fill="#333333" stroke="#333333" points="464.47,-332.18 468.62,-335.47 467.43,-330.31 464.47,-332.18"/>
</g>
<!-- transition_ac3478d69a3c81fa62e60f5c3696165a4e5e6ac4&#45;&gt;place_c2807535f28e44fe6c7375dcf90518115529a8fa -->
<g id="edge12" class="edge">
<title>transition_ac3478d69a3c81fa62e60f5c3696165a4e5e6ac4&#45;&gt;place_c2807535f28e44fe6c7375dcf90518115529a8fa</title>
<path fill="none" stroke="#333333" d="M798.19,-385.75C733.93,-381.64 597.82,-372.93 529.88,-368.58"/>
<polygon fill="#333333" stroke="#333333" points="529.82,-366.82 524.71,-368.25 529.59,-370.32 529.82,-366.82"/>
</g>
<!-- transition_c1dfd96eea8cc2b62785275bca38ac261256e278&#45;&gt;place_c2807535f28e44fe6c7375dcf90518115529a8fa -->
<g id="edge14" class="edge">
<title>transition_c1dfd96eea8cc2b62785275bca38ac261256e278&#45;&gt;place_c2807535f28e44fe6c7375dcf90518115529a8fa</title>
<path fill="none" stroke="#333333" d="M1035.98,-403.07C990.62,-422.32 908.77,-452 835.32,-452 703.54,-452 703.54,-452 703.54,-452 635.55,-452 563.6,-414.16 522.85,-388.68"/>
<polygon fill="#333333" stroke="#333333" points="523.69,-387.14 518.53,-385.95 521.82,-390.1 523.69,-387.14"/>
</g>
<!-- transition_902ba3cda1883801594b6e1b452790cc53948fda&#45;&gt;place_6f140c02b5c9b12588d158ba2a71b971bf469908 -->
<g id="edge16" class="edge">
<title>transition_902ba3cda1883801594b6e1b452790cc53948fda&#45;&gt;place_6f140c02b5c9b12588d158ba2a71b971bf469908</title>
<path fill="none" stroke="#333333" d="M560.32,-148C517.91,-148 444.51,-148 381.54,-148 271.54,-148 271.54,-148 271.54,-148 198.2,-148 175.65,-141.68 108,-170 92.88,-176.33 78.21,-186.73 66.16,-196.8"/>
<polygon fill="#333333" stroke="#333333" points="64.85,-195.62 62.18,-200.19 67.12,-198.28 64.85,-195.62"/>
</g>
<!-- transition_fe5dbbcea5ce7e2988b8c69bcfdfde8904aabc1f&#45;&gt;place_6f140c02b5c9b12588d158ba2a71b971bf469908 -->
<g id="edge18" class="edge">
<title>transition_fe5dbbcea5ce7e2988b8c69bcfdfde8904aabc1f&#45;&gt;place_6f140c02b5c9b12588d158ba2a71b971bf469908</title>
<path fill="none" stroke="#333333" d="M798.28,-41.81C752.33,-48.91 669.13,-60 597.54,-60 271.54,-60 271.54,-60 271.54,-60 180.5,-60 99.85,-144.19 61.2,-192.29"/>
<polygon fill="#333333" stroke="#333333" points="59.79,-191.26 58.04,-196.26 62.53,-193.44 59.79,-191.26"/>
</g>
<!-- transition_0ade7c2cf97f75d009975f4d720d1fa6c19f4897&#45;&gt;place_0e7766b460fd2a39a2fd81d4a3a636b033b52be4 -->
<g id="edge20" class="edge">
<title>transition_0ade7c2cf97f75d009975f4d720d1fa6c19f4897&#45;&gt;place_0e7766b460fd2a39a2fd81d4a3a636b033b52be4</title>
<path fill="none" stroke="#333333" d="M632.54,-288.73C642.6,-286.92 653.63,-284.95 663.94,-283.1"/>
<polygon fill="#333333" stroke="#333333" points="664.32,-284.81 668.94,-282.2 663.71,-281.36 664.32,-284.81"/>
</g>
<!-- transition_b1d5781111d84f7b3fe45a0852e59758cd7a87e5&#45;&gt;place_c2807535f28e44fe6c7375dcf90518115529a8fa -->
<g id="edge22" class="edge">
<title>transition_b1d5781111d84f7b3fe45a0852e59758cd7a87e5&#45;&gt;place_c2807535f28e44fe6c7375dcf90518115529a8fa</title>
<path fill="none" stroke="#333333" d="M798.19,-134.74C742.38,-150.08 632.44,-186.42 560.54,-250 536.15,-271.57 517.43,-303.57 505.35,-328.5"/>
<polygon fill="#333333" stroke="#333333" points="503.75,-327.8 503.17,-333.06 506.91,-329.3 503.75,-327.8"/>
</g>
<!-- transition_17ba0791499db908433b80f37c5fbc89b870084b&#45;&gt;place_c020eefdc595b46645c4e592566179cef2f2f33c -->
<g id="edge24" class="edge">
<title>transition_17ba0791499db908433b80f37c5fbc89b870084b&#45;&gt;place_c020eefdc595b46645c4e592566179cef2f2f33c</title>
<path fill="none" stroke="#333333" d="M892.11,-276C902.44,-276 913.02,-276 922.75,-276"/>
<polygon fill="#333333" stroke="#333333" points="922.76,-277.75 927.76,-276 922.76,-274.25 922.76,-277.75"/>
</g>
<!-- transition_7b52009b64fd0a2a49e6d8a939753077792b0554&#45;&gt;place_0e7766b460fd2a39a2fd81d4a3a636b033b52be4 -->
<g id="edge26" class="edge">
<title>transition_7b52009b64fd0a2a49e6d8a939753077792b0554&#45;&gt;place_0e7766b460fd2a39a2fd81d4a3a636b033b52be4</title>
<path fill="none" stroke="#333333" d="M1036.05,-220.4C979.29,-202.09 864.75,-173.95 776.54,-209 758.54,-216.15 742.47,-230.26 730.18,-243.7"/>
<polygon fill="#333333" stroke="#333333" points="728.85,-242.57 726.82,-247.47 731.46,-244.9 728.85,-242.57"/>
</g>
</g>
</svg>
